<svg  viewBox="0 0 85.285 85.285" xmlns="http://www.w3.org/2000/svg"><circle cx="43.161" cy="20.508" r="13.432"/><path d="m82.812 16.841c-2.96-2.512-7.375-2.144-9.876.811l-19.773 23.3c-2.55-2.59-6.078-4.209-10.002-4.209-4.209 0-7.94 1.892-10.506 4.829l-20.3-23.923c-2.514-2.951-6.928-3.316-9.883-.811-2.95 2.507-3.311 6.928-.806 9.88l26.385 31.088c.329.391.704.732 1.097 1.034v19.369h28.033v-20.349c.021-.021.041-.034.064-.055l26.375-31.088c2.502-2.948 2.146-7.369-.808-9.876zm-30.118 37.358c-.086.267-.179.712-.336 1.136-.13.432-.287.951-.472 1.551-.165.581-.359 1.177-.562 1.766-.198.605-.411 1.256-.657 1.845-.246.599-.496 1.259-.804 1.834-.582 1.204-1.314 2.354-2.184 3.442-.425.562-.917 1.058-1.41 1.581-.492.51-1.045.979-1.6 1.444-.56.445-1.142.876-1.752 1.267-.609.38-1.212.746-1.823 1.067-.609.321-1.211.603-1.772.849-.382.171-.76.315-1.107.438l-1.227.007c.07-.209.144-.425.224-.654.541-1.495 1.364-3.466 2.37-5.335.501-.941 1.068-1.841 1.629-2.669.301-.397.589-.78.862-1.144.301-.349.588-.678.855-.979.287-.273.546-.53.78-.753.23-.236.474-.387.651-.54.375-.281.589-.445.589-.445s-.224.144-.616.403c-.2.138-.451.268-.697.486-.252.212-.539.441-.854.705-.294.28-.61.589-.939.913-.31.354-.638.719-.972 1.099-.637.794-1.285 1.667-1.867 2.581-1.177 1.827-2.169 3.768-2.849 5.253-.13.301-.253.578-.364.831-.074-.185-.157-.394-.221-.615-.144-.473-.323-1.055-.438-1.694-.117-.646-.193-1.345-.224-2.098-.036-1.492.137-3.176.676-4.825.245-.835.609-1.656 1.033-2.457.411-.801.95-1.564 1.501-2.3.595-.726 1.244-1.403 1.93-2.026.732-.605 1.465-1.163 2.271-1.618.828-.441 1.608-.849 2.465-1.105.86-.261 1.664-.466 2.455-.568.814-.068 1.567-.079 2.225-.041.66.027 1.313.226 1.796.343.479.103.883.294 1.14.39.254.103.404.185.404.185s-.033.155-.109.45z"/></svg>